<?xml version="1.0" standalone="no"?>
<!DOCTYPE svg PUBLIC "-//W3C//DTD SVG 20010904//EN"
 "http://www.w3.org/TR/2001/REC-SVG-20010904/DTD/svg10.dtd">
<svg version="1.0" xmlns="http://www.w3.org/2000/svg"
 width="2512.000000pt" height="2512.000000pt" viewBox="0 0 2512.000000 2512.000000"
 preserveAspectRatio="xMidYMid meet">
<metadata>
Created by potrace 1.14, written by Peter Selinger 2001-2017
</metadata>
<g transform="translate(0.000000,2512.000000) scale(0.100000,-0.100000)"
fill="#000000" stroke="none">
<path d="M2387 15593 c-1 0 -153 -4 -337 -7 -345 -6 -430 -10 -490 -21 -98
-17 -184 -37 -233 -54 -31 -11 -58 -17 -61 -14 -3 4 -6 0 -6 -7 0 -7 -3 -11
-6 -7 -3 3 -36 -7 -72 -23 -312 -133 -506 -332 -597 -614 -16 -49 -19 -64 -31
-171 -10 -86 -5 -236 10 -310 5 -28 18 -103 18 -112 0 -5 5 -19 10 -33 6 -14
16 -48 23 -76 21 -78 95 -268 108 -276 7 -4 9 -8 4 -8 -6 0 80 -175 118 -239
30 -51 110 -177 114 -181 3 -3 15 -23 26 -44 11 -22 25 -44 30 -50 9 -10 24
-32 85 -135 9 -14 33 -52 53 -83 20 -31 37 -60 37 -63 0 -3 5 -11 10 -18 6 -7
24 -33 40 -59 17 -27 43 -69 60 -95 16 -27 34 -54 40 -60 6 -7 7 -13 3 -13 -4
0 -3 -4 2 -8 10 -7 85 -118 85 -126 0 -3 18 -32 40 -65 22 -33 40 -64 40 -68
0 -22 74 -67 96 -59 8 3 14 1 14 -5 0 -6 5 -7 13 -2 6 4 14 8 17 8 45 6 81 52
86 108 3 34 -48 147 -75 167 -4 3 -27 39 -51 80 -25 41 -69 111 -97 155 -29
44 -53 85 -53 92 0 6 -4 13 -9 15 -5 2 -17 17 -27 35 -46 80 -149 239 -158
245 -6 4 -7 8 -2 8 5 0 2 8 -6 18 -34 39 -230 364 -276 457 -53 109 -115 260
-115 281 0 8 -3 14 -7 14 -5 0 -33 100 -46 165 -1 6 -5 28 -10 50 -10 50 -10
308 0 355 5 19 12 43 17 53 5 9 7 17 5 17 -8 0 63 130 92 169 41 55 111 119
177 161 33 22 65 44 72 50 7 5 16 10 21 10 4 0 27 9 50 20 41 20 91 42 102 45
3 0 22 7 42 14 21 7 42 10 47 7 5 -4 11 -2 13 4 2 6 18 11 36 13 17 1 32 5 32
8 0 3 12 7 28 8 34 2 77 9 77 11 0 2 29 4 65 5 36 2 65 4 65 5 0 1 622 10 925
13 124 1 230 6 237 10 6 4 14 3 17 -2 7 -11 80 -5 106 9 36 19 72 90 60 120
-1 3 -3 13 -5 22 -5 25 -38 66 -60 74 -16 5 -632 13 -638 7z"/>
<path d="M6227 15593 c-1 -1 -456 -4 -1010 -7 -986 -5 -1009 -6 -1041 -25 -55
-34 -72 -89 -47 -153 15 -39 55 -61 118 -65 30 -2 59 -5 63 -8 5 -3 12 -1 15
5 5 8 11 7 21 -1 8 -6 14 -8 14 -3 0 5 324 10 733 11 1592 3 2287 8 2287 16 0
5 5 5 11 1 7 -4 82 -8 168 -10 86 -2 170 -6 186 -8 17 -3 44 -7 60 -10 17 -3
47 -7 69 -10 21 -3 46 -8 55 -10 9 -3 28 -7 42 -10 45 -7 153 -37 171 -47 10
-5 22 -9 28 -9 16 0 205 -83 208 -92 2 -4 8 -8 14 -8 8 0 75 -43 117 -75 37
-28 121 -113 121 -122 0 -6 7 -14 16 -17 9 -4 14 -9 11 -12 -3 -4 -1 -12 6
-20 30 -34 37 -44 37 -57 0 -7 4 -17 8 -22 5 -6 16 -29 25 -52 15 -39 20 -56
34 -123 8 -40 9 -231 1 -280 -7 -40 -15 -86 -22 -115 -11 -45 -42 -137 -62
-181 -13 -30 -20 -54 -16 -54 4 0 3 -4 -3 -8 -5 -4 -27 -40 -47 -80 -41 -78
-49 -139 -23 -166 8 -8 15 -19 15 -24 0 -11 53 -35 78 -35 48 0 63 5 90 32 30
30 119 204 142 276 7 22 16 45 19 50 4 6 13 35 20 65 8 30 16 59 19 65 3 5 7
16 8 25 1 8 4 30 8 47 18 91 23 169 19 273 -5 143 -8 168 -22 204 -6 16 -10
31 -7 33 8 8 -72 192 -103 239 -17 25 -31 47 -31 49 0 21 -208 225 -228 225
-5 0 -15 7 -22 15 -7 8 -24 21 -39 29 -14 7 -43 23 -64 34 -21 11 -43 25 -50
30 -7 6 -15 11 -20 11 -4 0 -29 10 -55 21 -57 25 -192 72 -209 73 -7 0 -13 3
-13 7 0 3 -8 6 -17 7 -18 1 -26 3 -98 21 -41 11 -191 37 -280 49 -41 5 -1523
12 -1528 6z"/>
<path d="M2126 14663 c-1 -1 -30 -5 -66 -8 -35 -3 -67 -8 -70 -10 -4 -2 -21
-7 -39 -10 -153 -27 -291 -136 -326 -259 -51 -179 -5 -322 154 -479 49 -48 94
-87 100 -87 6 0 11 -3 11 -8 0 -4 18 -18 40 -32 22 -14 40 -28 40 -31 0 -4 8
-9 18 -13 16 -5 40 -19 66 -39 14 -10 219 -133 266 -160 46 -25 217 -144 255
-177 53 -45 155 -149 155 -157 0 -5 9 -14 20 -21 11 -7 20 -17 20 -23 0 -5 9
-19 20 -31 11 -12 20 -28 20 -35 0 -7 4 -13 9 -13 24 0 60 -145 56 -224 -3
-65 -5 -74 -24 -121 -26 -65 -36 -85 -43 -85 -5 0 -8 -6 -8 -13 0 -22 -121
-141 -175 -172 -27 -16 -51 -33 -53 -37 -2 -4 -8 -8 -13 -8 -5 0 -35 -17 -66
-37 -32 -21 -66 -42 -75 -48 -86 -51 -164 -99 -168 -104 -3 -4 -38 -27 -79
-51 -40 -25 -81 -50 -90 -55 -9 -6 -106 -66 -215 -135 -222 -140 -281 -175
-313 -192 -13 -6 -23 -15 -23 -20 0 -4 -7 -8 -15 -8 -8 0 -15 -4 -15 -10 0 -5
-6 -10 -14 -10 -13 0 -76 -57 -106 -95 -21 -28 -49 -94 -56 -135 -19 -104 17
-218 93 -296 39 -40 117 -85 158 -91 66 -10 133 -8 178 5 28 8 135 67 240 133
105 66 193 119 198 119 4 0 9 4 11 8 2 4 32 26 68 47 36 21 91 56 122 77 32
21 58 35 58 31 0 -4 4 -3 8 2 4 6 25 22 47 36 45 30 260 165 290 182 11 7 49
30 85 53 36 22 70 44 77 47 7 5 33 -30 72 -95 33 -57 65 -108 70 -115 6 -7 11
-14 11 -17 0 -3 32 -57 70 -121 39 -64 70 -120 70 -125 0 -4 3 -10 8 -12 14
-6 132 -210 126 -219 -3 -5 -37 -28 -75 -51 -87 -53 -89 -54 -255 -158 -75
-47 -153 -101 -174 -120 -139 -132 -138 -357 3 -487 63 -58 105 -78 187 -88
14 -2 27 -4 30 -5 3 -1 8 -2 11 -2 118 13 151 28 417 198 45 30 104 66 177
111 11 7 36 20 55 30 19 9 37 20 40 23 7 10 139 61 161 63 10 1 19 4 19 7 0 8
51 13 130 13 98 0 170 -32 248 -110 36 -34 61 -63 56 -63 -5 0 -4 -4 3 -8 14
-9 79 -138 89 -177 4 -17 10 -34 14 -40 7 -10 46 -168 54 -220 2 -16 7 -48 10
-70 6 -38 11 -78 21 -185 3 -25 7 -94 10 -155 6 -144 14 -235 20 -256 3 -10 7
-26 9 -36 35 -179 152 -350 280 -409 147 -67 341 -9 465 140 9 10 24 27 34 38
9 10 17 22 17 27 0 5 4 11 8 13 15 6 109 171 178 313 38 77 72 143 77 146 5 3
8 8 6 10 -1 2 14 38 33 79 20 41 36 79 36 84 0 5 4 12 9 15 7 5 58 106 159
316 22 44 42 82 47 83 4 2 7 8 7 13 0 10 252 530 270 559 6 8 14 24 19 35 5
11 63 129 129 263 66 133 117 242 114 242 -4 0 -2 4 3 8 11 7 159 303 169 337
5 18 0 20 -42 23 -127 9 -147 10 -147 12 0 1 -20 3 -45 5 -55 4 -163 15 -210
21 -41 5 -114 11 -225 20 -44 3 -82 9 -85 13 -3 3 -30 6 -60 7 -50 1 -85 4
-255 21 -27 2 -63 6 -80 7 -32 3 -160 16 -210 21 -16 2 -64 6 -105 10 -41 3
-86 8 -100 10 -14 2 -59 7 -100 10 -80 7 -110 10 -205 20 -68 7 -123 12 -210
20 -173 14 -231 24 -293 47 -67 25 -143 73 -195 122 -39 38 -53 64 -62 118 -3
17 -8 35 -11 40 -13 21 -5 177 12 233 10 33 19 65 20 70 1 6 16 46 32 90 16
44 49 131 72 194 23 63 43 120 44 125 2 6 9 27 18 46 8 19 23 60 33 90 10 30
20 60 24 65 3 6 6 15 7 20 2 10 59 165 74 200 5 11 14 38 21 60 6 22 17 46 23
54 6 8 10 16 9 17 -3 5 -3 4 71 210 36 99 66 183 66 186 0 3 8 23 17 44 9 22
18 44 19 49 4 18 42 119 58 158 9 20 13 37 10 37 -4 0 -2 6 3 13 6 6 16 30 23
52 7 22 20 56 28 75 9 19 17 42 18 50 2 8 16 51 33 95 27 74 36 99 40 117 1 4
8 20 16 35 8 15 13 28 12 29 -1 2 -531 5 -1177 9 -646 3 -1262 7 -1368 8 -107
1 -195 1 -196 0z"/>
<path d="M6180 14650 l-435 -5 -56 -27 c-102 -50 -126 -87 -262 -403 -19 -44
-45 -102 -57 -130 -11 -27 -33 -79 -47 -115 -14 -36 -31 -68 -37 -72 -6 -4 -8
-8 -4 -8 4 0 -6 -32 -23 -70 -34 -80 -52 -123 -54 -130 -8 -24 -27 -68 -35
-82 -6 -10 -10 -23 -10 -29 0 -6 -7 -25 -15 -42 -8 -18 -31 -75 -51 -127 -20
-52 -41 -106 -46 -120 -6 -14 -13 -34 -15 -44 -2 -11 -7 -24 -12 -30 -13 -17
-114 -309 -126 -364 -3 -12 -8 -32 -11 -44 -11 -43 -12 -152 -1 -182 6 -17 20
-39 31 -49 25 -23 96 -60 96 -51 0 4 7 1 15 -6 8 -7 15 -10 15 -8 0 3 20 2 45
-3 41 -8 89 -13 195 -24 19 -2 35 -4 35 -5 0 -1 23 -3 51 -5 55 -3 144 -12
212 -21 23 -4 64 -8 90 -10 85 -5 199 -16 307 -29 42 -5 105 -11 215 -20 36
-3 79 -7 95 -10 17 -2 71 -7 120 -10 50 -4 104 -9 120 -11 17 -3 57 -7 90 -9
123 -9 200 -16 211 -19 19 -7 96 13 151 39 68 32 114 78 143 143 13 28 28 52
33 52 6 0 8 3 4 6 -7 7 111 245 126 255 5 3 8 9 7 13 -2 9 293 599 303 607 5
3 8 9 8 12 0 4 46 102 103 219 100 206 114 239 151 358 20 62 27 226 13 280
-31 114 -98 189 -224 251 -44 21 -90 39 -101 39 -11 0 -23 3 -27 7 -3 4 -14 8
-24 9 -9 1 -30 4 -47 8 -107 21 -437 26 -1265 16z"/>
<path d="M24728 14205 c-1 -2 -21 -4 -43 -6 -22 -1 -60 -13 -85 -25 -47 -23
-120 -89 -120 -109 0 -6 -5 -16 -12 -23 -17 -17 -20 -36 -20 -126 0 -56 4 -81
13 -87 8 -5 10 -9 6 -9 -25 0 83 -118 127 -137 70 -32 191 -38 223 -12 7 7 13
9 13 5 0 -11 53 26 84 59 16 16 40 54 54 84 21 45 24 64 20 125 -4 65 -22 117
-52 153 -41 50 -73 73 -114 84 -4 2 -26 8 -49 15 -22 7 -43 11 -45 9z"/>
<path d="M12929 13176 c-2 -2 -38 -6 -79 -9 -41 -4 -96 -13 -123 -21 -26 -8
-49 -14 -50 -14 -3 -1 -59 -21 -77 -29 -8 -3 -18 -5 -22 -5 -5 1 -8 -1 -8 -6
0 -4 -15 -14 -32 -22 -18 -7 -37 -18 -43 -22 -5 -5 -35 -27 -65 -51 -51 -40
-80 -69 -163 -161 l-35 -40 -33 63 c-50 95 -51 95 -110 153 -54 51 -183 126
-226 129 -2 1 -26 7 -55 15 -70 18 -322 13 -391 -9 -26 -8 -51 -16 -55 -17
-132 -40 -277 -148 -368 -275 -22 -30 -41 -55 -44 -55 -3 0 -5 66 -5 146 0 80
-3 148 -8 151 -12 7 -384 6 -395 -1 -5 -3 -8 -434 -8 -958 l1 -952 214 -1
c134 0 215 4 217 10 2 6 6 273 8 595 2 322 7 599 11 615 24 101 37 145 44 145
3 0 12 15 20 33 26 62 170 177 237 190 10 2 27 7 36 11 9 4 37 8 62 9 25 1 46
6 46 10 0 5 5 5 11 1 6 -3 32 -7 57 -9 174 -9 271 -106 308 -305 5 -26 6 -36
19 -130 4 -30 7 -306 7 -612 1 -398 4 -558 12 -560 10 -3 356 -2 411 1 20 1
20 8 19 509 0 279 2 511 4 516 3 5 6 30 8 55 4 56 11 117 18 151 12 57 29 116
37 125 5 5 9 15 9 23 0 16 56 100 84 126 35 32 108 76 117 70 5 -3 9 0 9 6 0
6 5 8 10 5 6 -3 16 -3 23 2 17 11 35 14 93 17 28 2 55 6 61 9 6 4 13 4 17 0 3
-3 25 -7 48 -9 125 -7 214 -65 257 -168 21 -48 43 -152 46 -217 1 -25 4 -50 7
-55 3 -5 5 -269 4 -586 -1 -379 2 -578 9 -579 64 -7 418 -2 424 6 10 13 7
1445 -4 1510 -16 108 -54 200 -102 253 -7 7 -18 21 -25 31 -31 43 -190 141
-228 141 -6 0 -10 5 -10 11 0 5 -4 8 -8 5 -5 -3 -33 1 -63 8 -30 7 -81 13
-114 15 -33 1 -62 4 -66 7 -3 2 -8 2 -10 0z"/>
<path d="M8030 13163 c-34 -7 -105 -57 -133 -96 -26 -34 -44 -77 -51 -117 -2
-14 -5 -29 -6 -35 -1 -5 -1 -12 0 -15 1 -3 3 -12 5 -20 13 -65 31 -103 65
-142 52 -59 118 -90 191 -90 57 0 149 27 149 43 0 5 4 9 10 9 25 0 108 119 93
134 -4 3 -2 6 4 6 6 0 8 29 7 73 -4 90 -5 97 -16 97 -4 0 -8 7 -8 15 0 26 -73
97 -125 121 -49 23 -118 29 -185 17z"/>
<path d="M14710 13154 c-111 -23 -247 -75 -270 -105 -3 -3 -16 -12 -28 -18
-85 -45 -222 -205 -282 -329 -30 -62 -76 -190 -84 -232 -2 -14 -7 -36 -10 -50
-17 -70 -31 -430 -17 -455 2 -5 6 -21 7 -35 3 -24 15 -104 19 -125 2 -5 13
-44 26 -85 12 -41 23 -77 23 -80 2 -15 90 -179 109 -204 31 -40 136 -147 174
-177 28 -22 63 -41 185 -101 10 -4 26 -8 36 -8 10 0 22 -3 26 -7 3 -4 14 -8
24 -10 9 -1 33 -5 52 -9 19 -3 49 -7 65 -9 17 -2 32 -4 35 -5 24 -9 273 9 288
20 1 2 7 4 12 5 6 1 13 4 18 5 4 1 12 3 17 4 12 2 36 12 85 33 85 38 189 122
266 216 l30 37 1 -102 c1 -57 1 -112 2 -123 1 -19 8 -20 216 -20 136 0 215 4
216 10 1 6 2 436 3 958 1 626 -2 947 -9 948 -48 3 -416 0 -422 -4 -4 -3 -8
-71 -7 -151 0 -80 -3 -143 -8 -140 -4 3 -8 10 -8 15 0 29 -107 164 -167 209
-70 54 -192 105 -298 126 -61 12 -261 11 -325 -2z m458 -397 c54 -16 114 -46
120 -59 2 -5 9 -8 16 -8 38 0 177 -201 189 -273 2 -12 7 -29 10 -37 17 -42 33
-332 19 -355 -4 -5 -7 -23 -8 -39 -2 -16 -6 -41 -10 -55 -4 -14 -8 -28 -9 -31
-19 -74 -74 -175 -128 -235 -77 -87 -173 -141 -282 -160 -69 -12 -221 -3 -254
15 -9 4 -20 8 -24 8 -13 1 -100 45 -121 61 -57 46 -103 99 -126 146 -8 17 -17
32 -21 35 -9 8 -47 141 -56 195 -9 56 -9 297 0 335 3 14 10 47 16 73 14 60 55
159 79 190 51 67 134 137 195 166 37 18 72 29 77 26 6 -3 10 -2 10 2 0 5 14
10 32 11 18 2 34 4 36 6 10 10 193 -3 240 -17z"/>
<path d="M17156 13163 c-2 -2 -15 -6 -30 -8 -79 -14 -110 -23 -186 -55 -103
-44 -213 -131 -306 -243 -39 -47 -129 -207 -117 -207 4 0 3 -4 -2 -8 -20 -14
-69 -190 -83 -297 -11 -83 -7 -385 7 -462 7 -40 13 -75 12 -78 0 -2 6 -23 14
-45 8 -22 15 -44 16 -48 11 -50 54 -149 91 -211 21 -34 38 -65 38 -67 0 -2 12
-16 28 -32 15 -16 41 -44 58 -63 32 -35 44 -45 104 -90 47 -35 186 -101 216
-103 13 0 24 -5 24 -10 0 -5 3 -7 6 -4 3 4 20 2 37 -3 89 -25 265 -27 392 -4
22 4 45 10 50 14 6 3 16 7 23 8 6 2 18 4 25 6 22 5 117 56 160 86 48 33 157
138 157 152 0 4 8 13 19 18 17 10 18 7 15 -47 -3 -31 -4 -66 -4 -77 2 -43 2
-73 -4 -160 -6 -113 -10 -138 -31 -200 -36 -106 -88 -172 -172 -214 -93 -47
-169 -63 -303 -64 -159 -1 -263 24 -335 79 -40 30 -80 92 -90 140 l-6 31 -235
-1 -235 -1 5 -52 c3 -29 7 -57 10 -61 3 -5 7 -21 10 -37 16 -89 106 -211 211
-287 92 -66 239 -128 345 -144 19 -3 38 -8 41 -10 12 -7 175 -18 269 -18 284
2 516 59 660 162 81 58 200 211 200 256 0 9 5 16 10 16 6 0 9 3 8 8 0 4 1 14
5 22 14 38 38 120 42 146 2 16 6 39 9 50 26 122 29 229 31 1184 0 525 0 960
-2 965 -3 8 -265 11 -423 6 -13 -1 -15 -24 -14 -146 0 -80 -2 -145 -6 -145 -3
0 -14 17 -24 37 -36 76 -123 168 -202 212 -16 9 -31 19 -34 22 -5 7 -76 39
-95 43 -5 2 -30 8 -55 15 -25 7 -56 15 -70 18 -32 6 -279 11 -284 6z m390
-396 c11 -3 36 -12 55 -19 18 -8 39 -16 44 -18 31 -8 120 -79 156 -123 92
-115 133 -256 132 -457 0 -160 -16 -237 -75 -358 -49 -100 -170 -232 -213
-232 -8 0 -15 -4 -15 -8 0 -7 -60 -29 -128 -48 -29 -7 -144 -7 -197 1 -51 8
-115 30 -168 56 -46 24 -157 133 -157 155 0 8 -3 14 -7 14 -9 0 -46 87 -46
107 0 7 -5 13 -10 13 -5 0 -7 6 -4 14 3 7 1 18 -4 23 -15 15 -39 251 -29 283
1 3 3 30 5 60 16 234 115 407 284 494 40 21 122 47 131 41 3 -2 12 0 20 5 13
8 186 6 226 -3z"/>
<path d="M20190 13161 c0 -5 -22 -55 -49 -112 -26 -57 -54 -121 -62 -141 -7
-21 -17 -38 -21 -38 -4 0 -8 -6 -8 -14 0 -8 -22 -62 -50 -120 -27 -58 -50
-108 -50 -110 0 -5 -50 -113 -112 -246 -22 -47 -41 -91 -41 -97 0 -7 -4 -13
-9 -13 -4 0 -8 -9 -8 -20 0 -11 -4 -20 -10 -20 -5 0 -10 -6 -10 -13 0 -7 -11
-36 -25 -64 -13 -28 -27 -63 -31 -77 -3 -14 -10 -26 -15 -26 -5 0 -8 -3 -7 -7
1 -5 -8 -39 -21 -78 -12 -38 -22 -84 -23 -102 -1 -37 -18 -46 -19 -10 -1 27
-1 31 -29 147 -13 52 -36 127 -52 165 -17 39 -30 76 -31 83 0 6 -3 12 -6 12
-3 0 -12 15 -20 33 -8 17 -33 73 -56 122 -81 173 -89 190 -90 195 0 3 -17 39
-37 80 -20 41 -56 118 -80 170 -122 261 -110 240 -143 241 -103 2 -427 0 -430
-3 -3 -2 4 -21 15 -41 11 -20 17 -37 13 -37 -5 0 -3 -4 3 -8 14 -9 64 -109 64
-128 0 -8 5 -14 10 -14 6 0 10 -9 10 -20 0 -11 5 -20 10 -20 6 0 10 -5 10 -10
0 -6 47 -106 104 -223 137 -278 297 -607 436 -892 173 -356 175 -360 183 -363
4 -2 7 -9 7 -15 0 -7 18 -48 40 -92 22 -44 40 -86 40 -92 0 -7 5 -13 10 -13 6
0 10 -6 10 -14 0 -7 6 -18 13 -25 11 -8 17 -1 32 32 10 23 33 75 52 115 18 41
33 75 33 77 0 2 15 36 34 77 18 40 55 123 82 183 27 61 52 113 57 116 5 3 9
10 8 15 -1 20 12 54 20 54 5 0 9 5 9 12 0 6 9 32 21 57 11 25 26 60 34 76 7
17 29 64 48 105 34 74 65 154 131 339 32 92 40 100 50 50 7 -37 72 -212 95
-258 12 -22 19 -41 16 -41 -2 0 4 -17 14 -37 26 -51 56 -117 56 -123 1 -3 17
-40 38 -83 20 -44 37 -81 37 -83 0 -7 60 -138 77 -169 10 -16 17 -32 16 -35
-1 -3 7 -24 18 -47 10 -24 28 -64 40 -90 11 -27 27 -61 35 -77 8 -16 14 -35
14 -43 0 -7 5 -13 10 -13 6 0 10 -6 10 -13 0 -8 13 -40 29 -73 15 -32 34 -76
42 -96 7 -21 16 -38 20 -38 4 0 14 15 23 34 26 56 365 746 397 809 16 32 29
64 29 71 0 8 4 16 8 18 9 3 112 211 112 224 0 4 7 15 16 25 8 9 17 23 18 31 1
7 50 110 109 229 59 118 107 221 107 227 0 7 5 12 10 12 6 0 10 9 10 20 0 11
5 20 10 20 6 0 10 8 10 19 0 10 7 24 15 31 8 6 17 22 21 33 3 12 27 64 51 115
25 51 43 95 40 99 -9 8 -87 9 -87 1 0 -4 -7 -5 -15 -2 -8 3 -89 7 -180 7
l-165 2 -25 -47 c-14 -26 -26 -50 -26 -53 0 -5 -44 -104 -89 -200 -16 -33 -48
-105 -73 -161 -25 -55 -59 -129 -75 -165 -17 -35 -41 -89 -55 -119 -14 -30
-39 -86 -57 -125 -36 -79 -52 -115 -56 -130 -1 -5 -7 -23 -14 -40 -6 -16 -12
-31 -12 -32 0 -1 -10 -38 -22 -81 -13 -43 -22 -86 -20 -96 1 -9 -2 -16 -8 -14
-6 2 -13 15 -15 29 -11 83 -46 190 -99 304 -16 33 -29 62 -29 65 -1 3 -21 46
-44 95 -24 50 -52 110 -63 135 -11 25 -38 83 -60 130 -77 165 -128 280 -128
290 0 6 -4 10 -10 10 -5 0 -10 6 -10 13 0 6 -11 35 -24 62 -35 74 -73 158 -80
178 -5 17 -56 25 -56 8z"/>
<path d="M22678 13164 c-2 -2 -22 -6 -44 -9 -55 -8 -204 -57 -204 -67 0 -4 -5
-8 -11 -8 -6 0 -37 -15 -68 -34 -87 -54 -201 -171 -258 -266 -33 -55 -86 -155
-85 -160 1 -3 -9 -39 -22 -80 -40 -125 -51 -210 -51 -395 0 -165 9 -256 36
-358 5 -20 7 -41 4 -46 -3 -5 -1 -11 5 -13 6 -2 12 -12 14 -23 13 -65 118
-275 138 -275 4 0 8 -6 8 -13 0 -20 126 -139 193 -181 53 -34 122 -69 139 -70
3 -1 10 -4 14 -8 4 -5 17 -8 29 -8 12 0 25 -3 29 -7 4 -5 12 -9 17 -9 5 -1 10
-2 12 -4 2 -2 18 -4 102 -14 98 -13 311 -3 333 14 1 2 6 3 11 4 5 0 12 4 16 8
4 4 13 4 20 2 7 -3 16 -1 20 5 3 6 15 11 26 11 10 0 19 5 19 11 0 5 4 8 9 4 5
-3 17 2 25 11 9 8 16 13 16 10 0 -6 69 36 104 64 57 45 146 144 146 163 0 9 2
9 8 0 4 -7 8 -62 7 -123 -1 -60 2 -110 5 -111 3 -1 100 -2 217 -3 204 -1 212
0 215 19 3 17 2 1845 -1 1885 -1 13 -29 15 -198 13 -109 -1 -207 -2 -218 -2
-19 -1 -20 -8 -20 -151 0 -82 -1 -150 -2 -150 -2 0 -13 20 -26 45 -77 152
-261 278 -457 312 -33 5 -268 12 -272 7z m414 -410 c82 -27 127 -53 183 -108
81 -81 142 -205 161 -331 12 -83 11 -255 -2 -325 -14 -76 -33 -141 -44 -155
-5 -5 -8 -12 -9 -15 -1 -45 -112 -186 -192 -245 -26 -20 -107 -54 -140 -60
-18 -3 -36 -8 -40 -11 -11 -6 -156 -6 -194 1 -26 4 -69 15 -85 20 -26 9 -47
18 -60 26 -8 5 -25 13 -37 19 -43 18 -131 119 -165 187 -18 37 -33 70 -34 73
0 3 -6 24 -12 47 -7 23 -16 61 -20 85 -11 66 -7 306 6 368 18 81 44 160 53
160 4 0 10 14 14 30 4 17 10 30 15 30 5 0 11 8 14 18 12 35 142 152 176 157 3
0 14 5 25 11 19 10 84 29 130 37 50 9 208 -2 257 -19z"/>
<path d="M24517 13102 c-16 -3 -17 -70 -15 -960 l3 -956 200 -1 c110 0 208 1
218 3 16 4 18 27 18 341 0 185 0 345 0 356 -1 11 -1 67 0 125 0 58 0 112 0
120 -1 8 -1 62 0 120 0 58 0 112 0 120 -1 8 -1 62 0 120 0 58 0 112 0 120 -1
8 -1 62 0 120 0 58 0 112 -1 120 -2 70 2 225 6 231 3 5 -7 11 -21 15 -27 7
-378 12 -408 6z"/>
<path d="M7663 12074 c-31 -13 -75 -65 -80 -93 -1 -8 -7 -17 -13 -21 -7 -4
-11 -10 -10 -14 2 -10 -142 -300 -153 -307 -5 -3 -7 -8 -5 -11 4 -5 -85 -182
-95 -186 -4 -2 -5 -7 -2 -12 3 -5 -1 -14 -8 -22 -7 -7 -14 -17 -15 -23 -4 -20
-446 -900 -456 -907 -6 -4 -8 -8 -4 -8 4 0 -89 -192 -207 -427 -118 -236 -215
-433 -215 -440 0 -6 -3 -13 -7 -15 -5 -1 -101 -190 -215 -418 -114 -228 -230
-451 -258 -495 -27 -44 -53 -88 -56 -97 -4 -10 -10 -18 -14 -18 -5 0 -19 -17
-31 -37 -44 -73 -181 -224 -274 -303 -40 -34 -135 -96 -171 -112 -16 -7 -32
-17 -36 -23 -4 -5 -8 -6 -8 -1 0 5 -6 4 -12 -2 -45 -36 -248 -58 -357 -39
-197 35 -420 177 -596 382 -27 32 -57 66 -67 76 -9 9 -14 20 -10 23 3 3 0 6
-6 6 -7 0 -12 4 -12 9 0 6 -19 38 -43 73 -24 35 -61 92 -82 128 -21 36 -43 67
-47 68 -4 2 -8 8 -8 13 0 10 -69 122 -90 146 -5 7 -10 15 -10 19 0 3 -20 36
-43 73 -24 36 -68 106 -98 154 -30 48 -73 118 -96 155 -23 37 -54 87 -69 112
-15 25 -43 69 -61 97 -18 29 -34 56 -35 60 0 5 -16 19 -36 32 -74 50 -182 0
-184 -87 -1 -36 37 -132 52 -132 4 0 10 -8 13 -17 4 -10 26 -49 51 -88 25 -38
59 -92 76 -120 17 -27 36 -59 43 -70 7 -11 24 -39 40 -62 15 -23 27 -44 27
-48 0 -7 39 -63 58 -83 6 -7 12 -17 12 -22 0 -9 40 -73 60 -97 5 -7 10 -14 10
-17 0 -2 37 -62 81 -133 45 -70 91 -145 102 -165 12 -21 24 -38 29 -38 4 0 8
-5 8 -11 0 -9 55 -97 69 -109 3 -3 22 -25 41 -50 45 -59 74 -91 139 -153 30
-29 63 -61 75 -72 12 -11 37 -31 56 -45 19 -13 37 -27 40 -31 31 -41 350 -201
383 -191 4 1 16 -2 26 -8 28 -14 112 -23 221 -23 80 0 175 7 175 13 0 2 14 5
53 14 64 14 210 79 224 100 4 6 8 8 8 4 0 -8 35 15 120 78 102 76 291 274 336
352 10 17 21 32 25 32 3 0 23 28 44 63 21 34 42 64 45 67 4 3 10 12 13 20 4 8
15 29 25 45 10 17 31 55 47 85 16 30 36 63 45 74 8 10 14 21 12 25 -3 8 119
254 131 262 5 3 8 9 7 13 -4 13 22 66 32 66 5 0 7 4 3 9 -3 5 1 15 8 23 7 7
14 16 15 21 3 19 95 203 106 209 6 4 7 8 2 8 -5 0 -3 7 4 15 7 8 9 15 4 15 -5
0 -4 4 2 8 5 4 72 133 148 287 76 154 144 283 150 287 6 4 8 8 4 8 -4 0 54
121 128 270 75 148 135 272 134 276 -1 4 2 10 7 13 10 7 145 278 143 287 -1 4
2 10 7 13 9 6 30 50 31 65 0 5 4 12 9 15 9 7 114 218 112 227 0 4 3 10 8 13 7
5 146 278 148 291 0 3 7 16 15 30 53 97 211 424 216 448 12 60 -44 129 -110
136 -12 2 -35 -3 -53 -10z"/>
<path d="M2036 10282 c-2 -2 -10 -5 -18 -6 -63 -15 -78 -20 -78 -28 0 -5 -4
-6 -10 -3 -5 3 -10 1 -10 -5 0 -6 -4 -9 -9 -6 -5 4 -11 3 -13 -2 -1 -4 -49
-36 -105 -71 -112 -69 -165 -117 -193 -171 -24 -47 -40 -109 -40 -156 0 -38 5
-89 9 -89 2 0 4 -7 6 -16 19 -101 146 -214 260 -234 50 -9 123 -7 144 5 9 4
19 9 23 9 23 3 88 34 88 42 0 5 4 9 9 9 11 0 124 69 184 112 32 22 60 52 104
113 5 6 10 17 12 25 1 8 8 33 15 55 31 104 -3 231 -85 315 -48 49 -83 71 -142
90 -37 12 -143 20 -151 12z"/>
</g>
</svg>
